<svg xmlns="http://www.w3.org/2000/svg" viewBox="0 0 64 64" fill="none">
  <!-- Shield -->
  <path d="M32 4 L56 16 V34 C56 48 44 58 32 62 C20 58 8 48 8 34 V16 Z" fill="#22c55e" stroke="#16a34a" stroke-width="2"/>
  <!-- Cross -->
  <rect x="27" y="18" width="10" height="26" rx="2" fill="white"/>
  <rect x="19" y="26" width="26" height="10" rx="2" fill="white"/>
  <!-- Heart badge (bottom-right corner of shield) -->
  <circle cx="48" cy="48" r="12" fill="#dc2626" stroke="#b91c1c" stroke-width="1.5"/>
  <!-- Heart -->
  <path d="M48 55 C44 51 39 47 39 44 C39 41.5 41 40 43 40 C45 40 46.5 41 48 43 C49.5 41 51 40 53 40 C55 40 57 41.5 57 44 C57 47 52 51 48 55Z" fill="white"/>
</svg>
